<svg id="Calque_1" data-name="Calque 1" xmlns="http://www.w3.org/2000/svg" viewBox="0 0 85.16 80.03"><defs><style>.cls-1{fill:#fff;}</style></defs><title>horse</title><path class="cls-1" d="M66.4,57.21c-.5-3.75-.89-6.71-3.35-6.71a5,5,0,0,0-2.41.79c-.82.46-1.93.86-2.53.16a2.78,2.78,0,0,1-.43-2.1c.49-3.13-1.47-5.71-6.35-8.38-3.57-1.95-4-3.91-3.81-4.5,0-.19.16-.39.57-.35.69.08,1.56,1.06,2.33,1.93,1.06,1.19,2.16,2.43,3.56,2.43a2.27,2.27,0,0,0,.75-.13A3.3,3.3,0,0,0,57,38c.14-.77,0-1.94-1.53-3.17a8.33,8.33,0,0,1-1.78-3.2c-.82-2.05-1.74-4.37-3.93-5.6a7.84,7.84,0,0,0,1.82-4,.87.87,0,0,0-.26-.69.89.89,0,0,0-.7-.25,5.46,5.46,0,0,0-1.29.31,3.48,3.48,0,0,0-.24-.9.88.88,0,0,0-.93-.52,8.31,8.31,0,0,0-3.93,1.92,11.21,11.21,0,0,0-5.75-1.69,9.54,9.54,0,0,0-2,.22A.88.88,0,0,0,36.21,22l.44.25a11.45,11.45,0,0,0-3.55,1.38.88.88,0,0,0-.15,1.4,4.63,4.63,0,0,0,.76.55,14,14,0,0,0-2.5,1.52.87.87,0,0,0-.17,1.2,4.74,4.74,0,0,0,1.69,1.32,14.36,14.36,0,0,1-3.64,1.85A.88.88,0,0,0,29,33.14a10.36,10.36,0,0,0,2.83.76,7.37,7.37,0,0,1-3.2,1.35.88.88,0,0,0-.42,1.57,6,6,0,0,0,2.55,1,8.26,8.26,0,0,0-1.91,2.85c-.72,1.91-1.6,2.31-1.6,2.31a.88.88,0,0,0,.2,1.72h.38a11.48,11.48,0,0,0,3.31-.48,9.89,9.89,0,0,0-.36,1.64c-.29,2.16-1.09,2.74-1.09,2.74a.88.88,0,0,0,.73,1.6,17.44,17.44,0,0,0,4.5-2.65,14.74,14.74,0,0,1-6.65,7.78c-6.26,3.74-7.69,7.12-8,8.64-2.41.15-9,1.15-10.39,7.6a26.49,26.49,0,0,0-.46,7.78c.15,2.63.24,4.38-1.29,6.5a.88.88,0,0,0,1.09,1.31,7.34,7.34,0,0,0,2.31-2A11.58,11.58,0,0,1,10,89.09a.88.88,0,0,0,1.13,1.26,11.47,11.47,0,0,0,2.63-1.87,12.31,12.31,0,0,0,.8,4.59.88.88,0,0,0,1.45.22,9.1,9.1,0,0,0,1.9-4.23,6.87,6.87,0,0,0,1.55,1.23.88.88,0,0,0,1.28-1,47.1,47.1,0,0,1-1.26-6.46,7.37,7.37,0,0,0,.83.85.88.88,0,0,0,1.45-.62c0-.22.24-5.49-2.23-8.41a3,3,0,0,1-.71-3.08,2.62,2.62,0,0,1,1.08-1.3,8.81,8.81,0,0,0,4.51,7.45,7.78,7.78,0,0,1-1.76,6.14.88.88,0,0,0-.17.61,20.25,20.25,0,0,0,4.44,10.08,2.11,2.11,0,0,0-.55,1.33A1.7,1.7,0,0,0,26.77,97l-.3,1.2a.88.88,0,0,0,.11.68.88.88,0,0,0,.57.39,24.15,24.15,0,0,0,4.38.45c.48,0,.94,0,1.37-.06a.88.88,0,0,0,.79-1,8.81,8.81,0,0,0-2-4.73c-1.31-2.24-3-6.31-2-7.72a10.24,10.24,0,0,1,2.22-1.87C34.47,82.56,38,80,38.07,74.56c0-4.06,2.32-4.69,5.46-5.56a16,16,0,0,0,5-2,14.38,14.38,0,0,0,5.26-7.37,3,3,0,0,0,1.34.64l.22,0c.82,0,1.78-.76,3.55-2.21a19.3,19.3,0,0,1,3-2.21,16.87,16.87,0,0,1-1.12,4.47.87.87,0,0,0,0,.3c0,.13,0,3.15,2.4,4.2a.88.88,0,0,0,.82-.06C64.11,64.69,67.13,62.73,66.4,57.21Zm-3.07-2.65A1.32,1.32,0,0,0,62,54c-1.13.16-2.64,1.4-4.24,2.71a19.46,19.46,0,0,1-2.42,1.8,3,3,0,0,1-1.27-1.14.88.88,0,0,0-1.61.31c0,.21-1.06,5.18-5,7.85a14.58,14.58,0,0,1-4.46,1.77c-3.14.86-6.69,1.84-6.75,7.23-.05,4.59-3,6.72-5.44,8.43a11.08,11.08,0,0,0-2.62,2.27c-2,2.73,1.27,8.55,1.94,9.69a.87.87,0,0,0,.13.16A6.38,6.38,0,0,1,31.77,98a19.88,19.88,0,0,1-3.36-.25l.2-.79a.88.88,0,0,0-.35-.94c-.1-.07-.15-.12-.16-.11a1.44,1.44,0,0,1,.5-.54A.88.88,0,0,0,28.76,94a19.15,19.15,0,0,1-4.52-9.41C27.19,80.44,26,77,26,76.82a.87.87,0,0,0-.44-.5,7.15,7.15,0,0,1-3.9-7.18.88.88,0,0,0-1-1,4.4,4.4,0,0,0-3.49,2.79,4.76,4.76,0,0,0,1,4.84,9.13,9.13,0,0,1,1.67,4.55,14.68,14.68,0,0,1-.77-1.47.88.88,0,0,0-1.68.39,50.67,50.67,0,0,0,.92,7.43A4.82,4.82,0,0,1,18,86a.88.88,0,0,0-1.71.34,8.72,8.72,0,0,1-.63,4.12,25.11,25.11,0,0,1,0-5.25A.88.88,0,0,0,13.87,85a4,4,0,0,1-1,1.85,21.34,21.34,0,0,0,.66-7.74.85.85,0,0,0-.9-.77.88.88,0,0,0-.85.84,9.6,9.6,0,0,1-.62,3.07,24.51,24.51,0,0,0,0-3,25,25,0,0,1,.42-7.3c1.32-6.06,8.53-6.24,9.35-6.24H21a1,1,0,0,0,.66-.28.88.88,0,0,0,.24-.67s-.09-3.54,7.25-7.93c8.36-5,8.2-12.52,8.18-12.83a.88.88,0,0,0-1.71-.25,7.61,7.61,0,0,1-3.35,3.52,10,10,0,0,0,.23-1.19,8.26,8.26,0,0,1,1.31-3.48,4.64,4.64,0,0,0,.48-.62.88.88,0,0,0-1.39-1.06,5.1,5.1,0,0,0-.42.54,5.11,5.11,0,0,1-2.71,1.28,9,9,0,0,0,.7-1.48,8.3,8.3,0,0,1,3.21-3.57.88.88,0,0,0-.57-1.63,7.08,7.08,0,0,1-1.57.06,11.56,11.56,0,0,0,3.37-2.66A.88.88,0,0,0,34,32a5.67,5.67,0,0,1-2,.09,22.42,22.42,0,0,0,3.14-2.09.88.88,0,0,0-.37-1.54,5.05,5.05,0,0,1-1.6-.61A19.27,19.27,0,0,1,36.6,26.3a.88.88,0,0,0-.28-1.71,3.2,3.2,0,0,1-.88-.13,8,8,0,0,1,3.61-.6.88.88,0,0,0,.72-1.51L39.34,22a9.77,9.77,0,0,1,4.42,1.7.88.88,0,0,0,1.17-.08,6.9,6.9,0,0,1,2.66-1.69,4.12,4.12,0,0,1-.06.85.88.88,0,0,0,1.46.81,2.35,2.35,0,0,1,.42-.31,9.23,9.23,0,0,1-1.75,2.43A.88.88,0,0,0,48,27.18c2.28.71,3.17,2.93,4,5.09a9.33,9.33,0,0,0,2.3,3.91c.38.31,1,.92.91,1.5a1.58,1.58,0,0,1-1.07,1c-.64.22-1.56-.84-2.43-1.82-1-1.15-2.09-2.35-3.44-2.5A2.17,2.17,0,0,0,45.83,36c-.44,1.72.84,4.39,4.67,6.48,5.29,2.89,5.7,5,5.45,6.56a4.46,4.46,0,0,0,.83,3.52c1.06,1.24,2.78,1.32,4.72.23a3.46,3.46,0,0,1,1.55-.57c.86,0,1.21,2.15,1.61,5.2s-.6,4.8-1.24,5.48a3.49,3.49,0,0,1-.91-2.18C63.19,58.91,64.15,55.73,63.34,54.56Z" transform="translate(-7.92 -19.95)"/><path class="cls-1" d="M88,56.53H86.81l.46-1a6.11,6.11,0,1,0-11.64-2.61,5.91,5.91,0,0,0,.59,2.6l.51,1H75.48a5.13,5.13,0,0,0-5.06,5.06V77.22a3.35,3.35,0,0,0,3.3,3.3h.88V95.83A4.17,4.17,0,0,0,78.69,100h.12a4.07,4.07,0,0,0,2.54-.88l.43-.34.43.34a4.06,4.06,0,0,0,2.54.88,4.15,4.15,0,0,0,4.15-4.15V80.52h.88a3.35,3.35,0,0,0,3.3-3.3V61.58A5.13,5.13,0,0,0,88,56.53Zm-6.3-8.07A4.52,4.52,0,1,1,77.2,53,4.52,4.52,0,0,1,81.72,48.46Zm9.73,28.76a1.67,1.67,0,0,1-3.34,0V63.71a.11.11,0,0,0-.09-.09h-.67s-.15.05-.15.09V95.83a2.57,2.57,0,0,1-2.58,2.52,1.36,1.36,0,0,1-.53-.1,2.52,2.52,0,0,1-1.87-2.42V79a.11.11,0,0,0-.09-.09h-.79a.11.11,0,0,0-.09.09V95.83a2.58,2.58,0,0,1-2.58,2.52,2.49,2.49,0,0,1-2.49-2.52V63.71s0-.09-.06-.09h-.67a.11.11,0,0,0-.09.09V77.22a1.67,1.67,0,0,1-3.34,0V61.58a3.43,3.43,0,0,1,3.43-3.43H88a3.43,3.43,0,0,1,3.43,3.43Z" transform="translate(-7.92 -19.95)"/></svg>