<svg id="Calque_1" data-name="Calque 1" xmlns="http://www.w3.org/2000/svg" viewBox="0 0 63.48 66.04"><defs><style>.cls-1{fill:#fff;}</style></defs><title>chapiteau</title><path class="cls-1" d="M82.89,88.92h0c-.2-.68-5-16.63-2.75-24.77a1.2,1.2,0,0,0,.08-.42V55.2a1.2,1.2,0,0,0,0-.27,1.16,1.16,0,0,0-.6-.79,1.15,1.15,0,0,0-.25-.1c-11.67-3.3-24.43-15.42-26.87-17.82l-.11-.11v-2l.19-.11c1.56-.92,3.16-.56,5.6.14l.31.09a12.2,12.2,0,0,0,4.08.7,6.92,6.92,0,0,0,5.84-3.28A11,11,0,0,0,69.81,25c-.22,0-.59.11-1,.19-2.44.52-7.51,1.62-11.61-.52a3.44,3.44,0,0,0-1.57-.32,9.55,9.55,0,0,0-2.92.54A6.63,6.63,0,0,0,50,26.34V36.42l-.1.11c-2.23,2.37-14,14.37-26.83,17.5a1.19,1.19,0,0,0-.28.1,1.15,1.15,0,0,0-.39.32,1.18,1.18,0,0,0-.22.46,1.17,1.17,0,0,0,0,.28v8.54a1.17,1.17,0,0,0,.06.36c2.09,8.52-2.68,24.68-2.73,24.84a1.16,1.16,0,0,0,1.11,1.5H81.78a1.16,1.16,0,0,0,1.11-1.5ZM52.36,27.09l.26-.09a5.85,5.85,0,0,1,3.83-.13A18.27,18.27,0,0,0,66.6,27.93l.6-.1-.18.58c-.39,1.23-1.6,4.09-4.52,4.15h-.11a13.44,13.44,0,0,1-3.6-.7,15.3,15.3,0,0,0-4.15-.77,6.6,6.6,0,0,0-1.8.24l-.48.13ZM44.64,44.7a82.56,82.56,0,0,0,6.48-6l.26-.27.27.26c1.19,1.14,3.67,3.45,6.88,6l.83.67H43.85Zm-12.92,8.6a61.85,61.85,0,0,0,10-6.3l.1-.08H61.39l.1.07a72.42,72.42,0,0,0,9.9,6.31l1.37.71H30.28Zm46.17,3v7.16a1.68,1.68,0,0,1-.56,1.17,3.88,3.88,0,0,1-2.7.95h-.17c-2.49-.08-3.39-1.29-3.66-1.81l0-.17V56.33Zm-8.7,0v7.53c0,.69-1.6,1.74-4,1.74s-3.82-1-3.82-1.74V56.33ZM52,63.63V56.33h7.83v7.53c0,.82-1.71,1.74-3.92,1.74S52.08,64.73,52,64v-.23A.6.6,0,0,0,52,63.63Zm-1.56-7.31v7.24a1.32,1.32,0,0,0,0,.17v.15c0,.79-1.7,1.71-3.89,1.71-2.35,0-3.6-1-3.6-1.74a.77.77,0,0,0,0-.17V56.33Zm-9.08,0v7.36l-.07.1a4.58,4.58,0,0,1-3.88,1.81h-.11c-2.6,0-3.68-1.33-4-1.88l-.06-.09v-7.3Zm-16.83,0h7.14v7.49c0,.73-1.29,1.78-3.62,1.78-2.17,0-3.5-1.24-3.5-2.12l0-.56ZM43.7,88.1l.5-.61c2.61-3.2,5.05-8.6,6.64-12.56l.34-.85.35.85c1.64,4,4.15,9.37,6.75,12.57l.5.61Zm17.22,0-.1-.08c-2.46-1.91-6.43-9.88-8.93-16.4a.78.78,0,0,0-1.45,0C48,78.15,44.14,86.11,41.6,88l-.1.08H22.16l.13-.47c1-3.75,3.25-13.26,2.72-20.6l0-.61.57.24a6.34,6.34,0,0,0,2.5.49,6.17,6.17,0,0,0,4.35-1.49l.25-.25.26.23a6.56,6.56,0,0,0,4.37,1.5,6.37,6.37,0,0,0,4.39-1.51l.27-.23.25.25a6.23,6.23,0,0,0,4.35,1.49A7,7,0,0,0,51,65.82l.24-.2.24.2a7.09,7.09,0,0,0,4.46,1.33,7.07,7.07,0,0,0,4.42-1.34l.24-.2.24.2a6.88,6.88,0,0,0,4.39,1.33,7.32,7.32,0,0,0,4.65-1.47l.25-.22.25.23a6.14,6.14,0,0,0,4.06,1.46h.21a6.08,6.08,0,0,0,2.21-.4l.55-.21,0,.59c-.54,7.23,1.76,16.74,2.77,20.5l.13.47Z" transform="translate(-19.47 -24.38)"/></svg>