<svg id="Calque_1" data-name="Calque 1" xmlns="http://www.w3.org/2000/svg" viewBox="0 0 68.1 61.5"><defs><style>.cls-1{fill:#fff;}</style></defs><title>cup</title><path class="cls-1" d="M83.8,33.94H69.55V30a1.2,1.2,0,0,0-1.25-1.25H33.7A1.2,1.2,0,0,0,32.45,30v4H18.2A1.2,1.2,0,0,0,17,35.19v13A15.27,15.27,0,0,0,32.2,63.44h2.45a18.66,18.66,0,0,0,15.1,9.78v9.32h-12a1.2,1.2,0,0,0-1.25,1.25v6.45H39V85H63v5.2h2.5V83.79a1.2,1.2,0,0,0-1.25-1.25h-12V73.23a18.66,18.66,0,0,0,15.1-9.78H69.8A15.27,15.27,0,0,0,85,48.19v-13A1.2,1.2,0,0,0,83.8,33.94Zm-1.25,2.5V48.19A12.76,12.76,0,0,1,69.8,60.94H68.46a17.77,17.77,0,0,0,1.08-6.25V36.44Zm-15.4-5.2V54.69a16.1,16.1,0,0,1-32.2,0V31.24ZM33.54,60.94H32.2A12.76,12.76,0,0,1,19.45,48.19V36.44h13V54.69A17.78,17.78,0,0,0,33.54,60.94Z" transform="translate(-16.95 -28.74)"/></svg>