<?xml version="1.0" encoding="utf-8"?>
<!-- Generator: Adobe Illustrator 16.0.0, SVG Export Plug-In . SVG Version: 6.00 Build 0)  -->
<!DOCTYPE svg PUBLIC "-//W3C//DTD SVG 1.1//EN" "http://www.w3.org/Graphics/SVG/1.1/DTD/svg11.dtd">
<svg version="1.1" id="Calque_1" xmlns="http://www.w3.org/2000/svg" xmlns:xlink="http://www.w3.org/1999/xlink" x="0px" y="0px"
	 width="18px" height="18px" viewBox="0 0 18 18" enable-background="new 0 0 18 18" xml:space="preserve">
<g id="Base" display="none">
	
		<image display="inline" overflow="visible" enable-background="new    " width="278" height="61" xlink:href="../../../../../../../Users/Nicolas/Downloads/F978F2FA.jpg"  transform="matrix(0.9999 0 0 0.9999 -90 -20)">
	</image>
</g>
<g id="Calque_10" display="none">
</g>
<g id="Calque_10_-_copie" display="none">
</g>
<g id="Calque_10_-_copie_2" display="none">
</g>
<g id="Calque_10_-_copie_3" display="none">
</g>
<g id="Calque_10_-_copie_4" display="none">
	<rect display="inline" fill="#00FF1E" width="18" height="18"/>
</g>
<g id="Calque_10_-_copie_5" display="none">
</g>
<g id="Calque_10_-_copie_6" display="none">
</g>
<g id="youtube">
</g>
<g id="facebook">
</g>
<g id="flickr">
</g>
<g id="googleplus">
	<path fill="#FFFFFF" d="M5.788,8.025v1.95h3.249c-0.14,0.819-0.989,2.43-3.249,2.43c-1.978,0-3.562-1.609-3.562-3.56
		c0-1.951,1.612-3.561,3.563-3.561c1.13,0,1.865,0.48,2.289,0.876l1.555-1.471C8.642,3.756,7.342,3.19,5.788,3.19
		c-3.193,0-5.765,2.516-5.765,5.652c0,3.137,2.572,5.652,5.765,5.652c3.334,0,5.51-2.289,5.51-5.512
		c0-0.368-0.028-0.649-0.084-0.933H5.788V8.025z M16.469,8.025v-1.61H14.83v1.61h-1.639v1.61h1.639v1.61h1.639v-1.61h1.639v-1.61
		H16.469z"/>
</g>
<g id="instagram">
</g>
<g id="linkedin" display="none">
</g>
<g id="pinterest_1_">
</g>
<g id="twitter">
</g>
</svg>
