<?xml version="1.0" encoding="utf-8"?>
<!-- Generator: Adobe Illustrator 22.1.0, SVG Export Plug-In . SVG Version: 6.00 Build 0)  -->
<svg version="1.1" id="Calque_1" xmlns="http://www.w3.org/2000/svg" xmlns:xlink="http://www.w3.org/1999/xlink" x="0px" y="0px"
	 viewBox="0 0 20 30.4" style="enable-background:new 0 0 20 30.4;" xml:space="preserve">
<style type="text/css">
	.st0{fill:#0F2482;}
</style>
<g>
	<path class="st0" d="M0,0.9v28.7c0,0.5,0.4,0.9,0.9,0.9h4.8c0.4,0,0.8-0.3,0.9-0.8c0.1-1.6,1.5-2.8,3.1-2.8s2.9,1.2,3.1,2.8
		c0.1,0.4,0.4,0.8,0.9,0.8h5.6c0.5,0,0.9-0.4,0.9-0.9V0.9C20,0.4,19.6,0,19.1,0h-5.2c-0.4,0-0.8,0.3-0.9,0.7c-0.3,1.4-1.5,2.5-3,2.5
		S7.3,2.1,7,0.7C7,0.3,6.6,0,6.2,0H0.9C0.4,0,0,0.4,0,0.9z M14.3,28.7c-0.6-2.1-2.5-3.6-4.7-3.6s-4.2,1.5-4.7,3.6H1.8V11.3h16.5
		v17.4H14.3z M5.4,1.7c0.9,2.5,3.7,3.8,6.2,2.9C13,4.1,14,3,14.5,1.7h3.7v7.8H1.8V1.7H5.4z"/>
	<path class="st0" d="M7.4,17.4h5.2c0.5,0,0.9-0.4,0.9-0.9s-0.4-0.9-0.9-0.9H7.4c-0.5,0-0.9,0.4-0.9,0.9S6.9,17.4,7.4,17.4z"/>
	<path class="st0" d="M14.8,20h-10c-0.5,0-0.9,0.4-0.9,0.9s0.4,0.9,0.9,0.9h10c0.5,0,0.9-0.4,0.9-0.9C15.6,20.4,15.3,20,14.8,20z"/>
</g>
</svg>
