<?xml version="1.0" encoding="utf-8"?>
<!-- Generator: Adobe Illustrator 21.0.0, SVG Export Plug-In . SVG Version: 6.00 Build 0)  -->
<svg version="1.1" id="Calque_1" xmlns="http://www.w3.org/2000/svg" xmlns:xlink="http://www.w3.org/1999/xlink" x="0px" y="0px"
	 viewBox="0 0 25.8 23.5" style="enable-background:new 0 0 25.8 23.5;" xml:space="preserve">
<style type="text/css">
	.st0{fill:#2B7BD1;}
</style>
<g>
	<g>
		<path class="st0" d="M21.5,12.2c-1.1,0-2.1-0.4-2.9-1.1c-0.8,0.7-1.8,1.1-2.9,1.1c-1.1,0-2.1-0.4-2.9-1.1
			c-0.8,0.7-1.8,1.1-2.9,1.1c-1.1,0-2.1-0.4-2.9-1.1c-0.8,0.7-1.8,1.1-2.9,1.1C1.9,12.2,0,10.2,0,7.9c0-0.1,0-0.2,0.1-0.4l2.7-6.9
			C2.9,0.3,3.3,0,3.7,0h18c0.4,0,0.7,0.2,0.9,0.6l3.2,6.9c0.1,0.1,0.1,0.3,0.1,0.4C25.8,10.2,23.9,12.2,21.5,12.2 M18.7,8.5
			c0.4,0,0.7,0.2,0.9,0.5c0.4,0.7,1.2,1.2,2,1.2c1.2,0,2.2-0.9,2.3-2.1L21,2H4.4L2,8c0.1,1.2,1.1,2.1,2.3,2.1c0.8,0,1.6-0.4,2-1.2
			c0.4-0.6,1.4-0.6,1.7,0c0.4,0.7,1.2,1.2,2,1.2c0.8,0,1.6-0.4,2-1.2c0.4-0.6,1.4-0.6,1.7,0c0.4,0.7,1.2,1.2,2,1.2
			c0.8,0,1.6-0.4,2-1.2C18,8.7,18.3,8.5,18.7,8.5"/>
	</g>
	<g>
		<path class="st0" d="M22.1,23.5H3.8c-0.6,0-1-0.4-1-1v-11c0-0.6,0.4-1,1-1s1,0.4,1,1v10h16.3v-10c0-0.6,0.4-1,1-1s1,0.4,1,1v11
			C23.1,23,22.6,23.5,22.1,23.5"/>
	</g>
	<g>
		<path class="st0" d="M18.7,22.5H7.1c-0.3,0-0.5-0.2-0.5-0.5v-7.3c0-0.3,0.2-0.5,0.5-0.5h11.7c0.3,0,0.5,0.2,0.5,0.5V22
			C19.2,22.3,19,22.5,18.7,22.5 M7.6,21.5h10.7v-6.3H7.6V21.5z"/>
	</g>
	<g>
		<path class="st0" d="M22.6,4.1H3.3c-0.3,0-0.5-0.2-0.5-0.5s0.2-0.5,0.5-0.5h19.2c0.3,0,0.5,0.2,0.5,0.5S22.9,4.1,22.6,4.1"/>
	</g>
</g>
</svg>
