<?xml version="1.0" encoding="utf-8"?>
<!-- Generator: Adobe Illustrator 15.1.0, SVG Export Plug-In . SVG Version: 6.00 Build 0)  -->
<!DOCTYPE svg PUBLIC "-//W3C//DTD SVG 1.1//EN" "http://www.w3.org/Graphics/SVG/1.1/DTD/svg11.dtd">
<svg version="1.1" id="Layer_3" xmlns="http://www.w3.org/2000/svg" xmlns:xlink="http://www.w3.org/1999/xlink" x="0px" y="0px"
	 width="19.478px" height="22.86px" viewBox="0 0 19.478 22.86" enable-background="new 0 0 19.478 22.86" xml:space="preserve">
<g>
	<g>
		<g>
			<path fill="#B10A31" d="M9.736,17.578c-0.206,0-0.413-0.063-0.588-0.191L2.115,12.27c-0.447-0.325-0.546-0.95-0.221-1.396
				c0.323-0.447,0.951-0.546,1.396-0.221l6.445,4.689l6.447-4.689c0.444-0.325,1.072-0.227,1.396,0.221
				c0.326,0.446,0.227,1.071-0.22,1.396l-7.035,5.117C10.149,17.515,9.942,17.578,9.736,17.578L9.736,17.578z"/>
		</g>
		<g>
			<path fill="#B10A31" d="M9.736,17.578c-0.553,0-1-0.447-1-1V1c0-0.553,0.447-1,1-1s1,0.447,1,1v15.578
				C10.736,17.131,10.289,17.578,9.736,17.578L9.736,17.578z"/>
		</g>
	</g>
	<g>
		<path fill="#B10A31" d="M18.478,22.86H1c-0.553,0-1-0.447-1-1s0.447-1,1-1h17.478c0.553,0,1,0.447,1,1S19.03,22.86,18.478,22.86
			L18.478,22.86z"/>
	</g>
	<g>
		<path fill="#B10A31" d="M18.478,22.86c-0.553,0-1-0.447-1-1v-4.421c0-0.553,0.447-1,1-1s1,0.447,1,1v4.421
			C19.478,22.413,19.03,22.86,18.478,22.86L18.478,22.86z"/>
	</g>
	<g>
		<path fill="#B10A31" d="M1,22.86c-0.553,0-1-0.447-1-1v-4.421c0-0.553,0.447-1,1-1s1,0.447,1,1v4.421
			C2,22.413,1.553,22.86,1,22.86L1,22.86z"/>
	</g>
</g>
</svg>
