<svg id="Calque_1" data-name="Calque 1" xmlns="http://www.w3.org/2000/svg" viewBox="0 0 89.25 80.74"><defs><style>.cls-1{fill:#fff;}</style></defs><title>horses</title><path class="cls-1" d="M92,36.38a15.48,15.48,0,0,1-3.36-4.51,5.79,5.79,0,0,0-2-2.51,8.33,8.33,0,0,1,0-3.71,1,1,0,0,0-1.33-1.21,8.3,8.3,0,0,0-1.34.92,3.4,3.4,0,0,1-.45-1A1,1,0,0,0,82,23.9a10.13,10.13,0,0,0-2,2.92,10.43,10.43,0,0,0-5.06-1.35,9.84,9.84,0,0,0-1.2.07,27.28,27.28,0,0,1-3.31.22,11.92,11.92,0,0,1-2.19-.16,1,1,0,0,0-1,1.43,10.52,10.52,0,0,0,.91,1.24l-.33.07a7.29,7.29,0,0,1-2.42.16,1,1,0,0,0-.76,1.64,10.6,10.6,0,0,0,1.37,1A8.54,8.54,0,0,0,63.7,32.5a1,1,0,0,0,.46,1.68,7,7,0,0,0-2.44,1.9,1,1,0,0,0,.36,1.46l.46.19a9.3,9.3,0,0,1-2,1.08,1,1,0,0,0-.3,1.63,3.8,3.8,0,0,0,1.24.64,8.92,8.92,0,0,1-2.31,1.2,1,1,0,0,0-.63.8A1,1,0,0,0,59,44a6.56,6.56,0,0,0,1.71.68,5,5,0,0,1-1.51.77,1,1,0,0,0-.26,1.72,10.4,10.4,0,0,0,2.08,1c-2.42,1.66-7.1,4-14.33,4-1.2,0-2.45-.06-3.66-.19a43.77,43.77,0,0,0-8-.84,17.41,17.41,0,0,0-4.93.6,10.35,10.35,0,0,0-6.91-4.1,13.55,13.55,0,0,0-1.53-.08,23.26,23.26,0,0,0-4.85.64,19.65,19.65,0,0,1-4,.55c-.32,0-.64,0-.94,0a1,1,0,0,0-1,.55,1,1,0,0,0,.22,1.09,7.17,7.17,0,0,0,1.09.8,8.2,8.2,0,0,0-1.7,1.31,13.92,13.92,0,0,1-3.2,2.21,1,1,0,0,0,.23,1.79,16.49,16.49,0,0,0,3,.29h.4a20,20,0,0,1-5,3.8A1,1,0,0,0,6,62.22a7.88,7.88,0,0,0,2.79.55l.57,0a15.73,15.73,0,0,1-2.79,4.87,1,1,0,0,0,.74,1.58,8.48,8.48,0,0,0,3.11-.71,11.93,11.93,0,0,0,1.15,5.72.94.94,0,0,0,.69.46.92.92,0,0,0,.8-.26,13.34,13.34,0,0,0,3.45-6.46,2.93,2.93,0,0,1,.29.74,1,1,0,0,0,.88.74,1,1,0,0,0,.95-.62,22.36,22.36,0,0,0,1.22-6c.07-1.89.89-7.29,3.71-7.29a3.55,3.55,0,0,1,1.37.32,18,18,0,0,0-1.67,12.3c.22,1,.44,1.89.64,2.76,1.22,5.19,2,8.61.83,11.8-.29.45-1.71,2.79-.5,4.85.34.59,1,2.66,1.46,9.91a1,1,0,0,0,.42.72,4.75,4.75,0,0,1,1.1,1.32,9.16,9.16,0,0,0-1.3,2.94,1,1,0,0,0,.52,1.06,11,11,0,0,0,6.8.55,1,1,0,0,0,.72-1.11,15.91,15.91,0,0,0-2.52-5.63c-.25-.89-1.73-6.38-1.68-9.57,1.73-.93,8.08-5.06,9.56-15.63A1.32,1.32,0,0,1,40.71,71a4.32,4.32,0,0,1,1.2.2,25.63,25.63,0,0,1,2.71,1.1,35.06,35.06,0,0,0,19.54,3.61,48.74,48.74,0,0,0,.14,11.18,32.4,32.4,0,0,1,.28,9.3v.12c0,.22,0,.44-.07.67a2.35,2.35,0,0,0-.37,2.43,4.94,4.94,0,0,0-.53,2.72,1,1,0,0,0,.78.88,27.15,27.15,0,0,0,4.7.49c.41,0,.8,0,1.15,0a1,1,0,0,0,.87-1,10.77,10.77,0,0,0-1.93-5.28,59.77,59.77,0,0,1,.09-9.66,37.93,37.93,0,0,0,5.38-13.23c1.2-1.5,6.18-8.7,4-22.06-1.18-7.35-.31-9.67.31-10.4a1.35,1.35,0,0,1,1.12-.48A6.61,6.61,0,0,1,82.2,42l.19.07a13.27,13.27,0,0,0,2.8.64,9.53,9.53,0,0,1,3.47,1,2.64,2.64,0,0,0,2,.95A3,3,0,0,0,92.48,44c.87-.68,2.07-1.62,2.14-3.1C94.69,39.58,93.84,38.14,92,36.38Zm-2.21,5.83a11.21,11.21,0,0,0-4.31-1.35,11.53,11.53,0,0,1-2.4-.54l-.19-.07a8.05,8.05,0,0,0-2.75-.64,3.23,3.23,0,0,0-2.57,1.15c-1.51,1.77-1.75,5.68-.74,11.94C79,66.4,73.08,73.36,73,73.43a.94.94,0,0,0-.23.49c-.94,6.34-5.06,12.63-5.24,12.89a.93.93,0,0,0-.16.41,60.73,60.73,0,0,0-.12,10.56,1,1,0,0,0,.2.51,8.75,8.75,0,0,1,1.57,3.49,24.42,24.42,0,0,1-3.53-.32,2.24,2.24,0,0,1,.39-1.13A1,1,0,0,0,66,99.11c-.29-.42-.17-.65,0-.76a1,1,0,0,0,.37-.68c0-.35.06-.7.1-1.1a33.79,33.79,0,0,0-.29-9.77,48.09,48.09,0,0,1,0-11.86,1,1,0,0,0-1.07-1.08,34.69,34.69,0,0,1-4.65.32,35.24,35.24,0,0,1-15.12-3.66,25.78,25.78,0,0,0-2.89-1.16,6.14,6.14,0,0,0-1.74-.28,3.23,3.23,0,0,0-3.35,2.83c-1.54,11-8.89,14.34-9,14.37a1,1,0,0,0-.57.8c-.3,3.71,1.68,10.64,1.77,10.93a1,1,0,0,0,.14.3,14.45,14.45,0,0,1,2,4.08,9,9,0,0,1-1.12.07,9.57,9.57,0,0,1-2.68-.39A9.25,9.25,0,0,1,29,100.18l0,0,0,0h0a1,1,0,0,0,.05-1,8,8,0,0,0-1.61-2.2c-.39-5.74-.92-9-1.69-10.34-.67-1.15.42-2.81.46-2.87a.87.87,0,0,0,.11-.21c1.48-3.83.61-7.5-.7-13.05l0-.19c-.19-.81-.39-1.65-.59-2.55A16.43,16.43,0,0,1,27,56a1,1,0,0,0-.3-1.35,6.28,6.28,0,0,0-3.19-1c-4.19,0-5.51,6-5.62,9.13A16.84,16.84,0,0,1,17.41,66a8.39,8.39,0,0,0-1.15-1.18,1,1,0,0,0-1.54.8,10.07,10.07,0,0,1-2.08,6.29,17.08,17.08,0,0,1-.26-5.32,1,1,0,0,0-1.73-.66,2.73,2.73,0,0,1-1.18.89,17.07,17.07,0,0,0,2.17-5.26,1,1,0,0,0-1.4-1A2.91,2.91,0,0,1,9,60.86a27.91,27.91,0,0,0,5.39-5.19,1,1,0,0,0-1.26-1.39,5.1,5.1,0,0,1-2.49.51,10.15,10.15,0,0,0,1.22-1.05,9.32,9.32,0,0,1,3.09-1.84,1,1,0,0,0,.4-1.53c.64-.11,1.27-.24,1.86-.36a21.76,21.76,0,0,1,4.43-.59,11.94,11.94,0,0,1,1.32.07,8.89,8.89,0,0,1,5.94,3.84,1,1,0,0,0,1.17.39A13.83,13.83,0,0,1,35,53a42.81,42.81,0,0,1,7.66.81l.1,0a38.45,38.45,0,0,0,3.92.21C58.31,54,63.8,48.37,64,48.13a1,1,0,0,0-.91-1.58,3,3,0,0,1-1.53-.2,10.83,10.83,0,0,0,2.3-2.12,1,1,0,0,0-1.12-1.46,2,2,0,0,1-.61.14,9,9,0,0,0,2.38-2.19,1,1,0,0,0,0-1.1.94.94,0,0,0-.8-.4,18.05,18.05,0,0,0,1.76-1.38,1,1,0,0,0-.82-1.64,1.1,1.1,0,0,1-.27,0,7.84,7.84,0,0,1,2.89-1,1,1,0,0,0,.42-1.75,6.72,6.72,0,0,0-1-.52,7.94,7.94,0,0,1,2.37-.51,1,1,0,0,0,.11-1.9,4.11,4.11,0,0,1-1.07-.31l.11,0A5,5,0,0,1,69.52,30a8.71,8.71,0,0,1,1.24.09l.21,0a1,1,0,0,0,1.06-.8,1,1,0,0,0-.77-1.09l-.11,0a2.36,2.36,0,0,1-1-.61,28.78,28.78,0,0,0,3.79-.23,8,8,0,0,1,1-.06,8.51,8.51,0,0,1,5,1.65,1,1,0,0,0,.91.17,1,1,0,0,0,.63-.68,6.71,6.71,0,0,1,1-2.13,5.07,5.07,0,0,0,1,1.16,1,1,0,0,0,1.14,0,16.65,16.65,0,0,0,.3,2.62,1,1,0,0,0,.58.69c.64.26.95.83,1.51,1.88a17.31,17.31,0,0,0,3.74,5c1.74,1.64,2.08,2.57,2.06,3.06s-.58,1-1.41,1.69a1.22,1.22,0,0,1-.68.31.78.78,0,0,1-.54-.31h0A1,1,0,0,0,89.75,42.21Zm-22,45.05h0Z" transform="translate(-5.37 -23.63)"/></svg>